<?xml version="1.0" encoding="UTF-8"?>
<svg id="Capa_2" data-name="Capa 2" xmlns="http://www.w3.org/2000/svg" viewBox="0 0 799.5 350.07">
  <defs>
    <style>
      .cls-1 {
        fill: #f15a31;
      }

      .cls-2 {
        fill: #f1f2f2;
      }

      .cls-3 {
        fill: #00adee;
      }

      .cls-4 {
        fill: #00002c;
      }
    </style>
  </defs>
  <g id="Capa_1-2" data-name="Capa 1">
    <g>
      <g>
        <path class="cls-2" d="M56.79,311.83h-10.85c-1.15,0-2.11,.38-2.88,1.12-.77,.75-1.16,1.7-1.16,2.84s.39,2.1,1.16,2.85c.77,.75,1.73,1.12,2.88,1.12h6.22v8.54c-.92,.34-1.99,.64-3.31,.85-1.59,.26-3.04,.4-4.37,.4-2.87,0-5.48-.72-7.84-2.15-2.36-1.43-4.23-3.36-5.62-5.79-1.39-2.43-2.08-5.07-2.08-7.94s.69-5.57,2.08-7.97c1.39-2.4,3.26-4.32,5.62-5.76,2.36-1.43,4.97-2.15,7.84-2.15,1.37,0,2.67,.13,3.9,.4,1.23,.26,2.4,.64,3.51,1.12,.35,.18,.72,.31,1.09,.4,.37,.09,.74,.13,1.09,.13,1.1,0,2.01-.42,2.71-1.26,.71-.84,1.06-1.79,1.06-2.84,0-.62-.17-1.22-.5-1.82-.33-.6-.83-1.07-1.49-1.42-1.63-.88-3.42-1.54-5.36-1.98-1.94-.44-3.95-.66-6.02-.66-3.35,0-6.48,.62-9.39,1.85-2.91,1.24-5.47,2.94-7.67,5.13-2.21,2.18-3.94,4.71-5.19,7.57-1.26,2.87-1.89,5.95-1.89,9.26s.63,6.4,1.89,9.26c1.26,2.87,2.99,5.39,5.19,7.58,2.21,2.18,4.76,3.89,7.67,5.13,2.91,1.23,6.04,1.85,9.39,1.85,2.65,0,5.17-.36,7.57-1.09,2.4-.73,4.62-1.71,6.65-2.94,.53-.35,1-.82,1.42-1.39,.42-.57,.63-1.3,.63-2.18v-14.03c0-1.15-.38-2.11-1.12-2.88-.75-.77-1.7-1.16-2.85-1.16Z"/>
        <path class="cls-2" d="M83.12,300.79c-1.1,0-2.21,.13-3.31,.4-1.1,.26-2.14,.67-3.11,1.22-.97,.55-1.84,1.24-2.61,2.05-.58,.62-1,1.37-1.42,2.12v-1.1c0-1.15-.38-2.11-1.12-2.88-.75-.77-1.7-1.16-2.84-1.16s-2.1,.39-2.85,1.16c-.75,.77-1.12,1.73-1.12,2.88v27.32c0,1.15,.37,2.11,1.12,2.88,.75,.77,1.7,1.16,2.85,1.16s2.09-.39,2.84-1.16c.75-.77,1.12-1.73,1.12-2.88v-15.68c0-1.59,.21-2.97,.63-4.13,.42-1.17,.97-2.15,1.65-2.94,.68-.79,1.43-1.38,2.25-1.75,.82-.37,1.62-.56,2.41-.56,.88,0,1.66,.15,2.35,.46,.68,.31,1.44,.46,2.28,.46,.88,0,1.7-.32,2.45-.96,.75-.64,1.12-1.69,1.12-3.14,0-1.01-.45-1.9-1.36-2.65-.9-.75-2.02-1.12-3.34-1.12Z"/>
        <path class="cls-2" d="M116.4,301.45c-1.15,0-2.1,.39-2.84,1.16-.75,.77-1.12,1.73-1.12,2.88v16.8c0,2.69-.6,4.69-1.79,5.99-1.19,1.3-3,1.95-5.43,1.95s-4.17-.65-5.36-1.95c-1.19-1.3-1.79-3.3-1.79-5.99v-16.8c0-1.15-.38-2.11-1.13-2.88-.75-.77-1.7-1.16-2.84-1.16s-2.1,.39-2.85,1.16c-.75,.77-1.12,1.73-1.12,2.88v16.8c0,4.68,1.29,8.38,3.87,11.12,2.58,2.74,6.32,4.1,11.21,4.1s8.64-1.37,11.25-4.1c2.6-2.73,3.9-6.44,3.9-11.12v-16.8c0-1.15-.38-2.11-1.12-2.88-.75-.77-1.7-1.16-2.84-1.16Z"/>
        <path class="cls-2" d="M152.29,303.14c-2.45-1.56-5.22-2.35-8.3-2.35-1.54,0-3.01,.26-4.4,.79-1.39,.53-2.61,1.2-3.67,2.02-.97,.75-1.71,1.5-2.32,2.25v-.37c0-1.15-.38-2.11-1.12-2.88-.75-.77-1.7-1.16-2.84-1.16s-2.1,.39-2.84,1.16c-.75,.77-1.13,1.73-1.13,2.88v40.56c0,1.19,.37,2.16,1.13,2.91,.75,.75,1.7,1.12,2.84,1.12s2.09-.39,2.84-1.16c.75-.77,1.12-1.73,1.12-2.88v-12.99c.47,.47,1,.94,1.62,1.41,1.17,.88,2.52,1.61,4.07,2.18,1.54,.57,3.2,.86,4.96,.86,3,0,5.7-.78,8.1-2.35,2.4-1.56,4.32-3.73,5.76-6.48,1.43-2.76,2.15-5.94,2.15-9.56s-.72-6.79-2.15-9.53c-1.43-2.73-3.37-4.88-5.82-6.45Zm-.86,21.63c-.82,1.7-1.94,3.03-3.37,4-1.43,.97-3.12,1.46-5.06,1.46s-3.64-.49-5.09-1.46c-1.46-.97-2.59-2.31-3.41-4-.82-1.7-1.22-3.58-1.22-5.66s.41-4,1.22-5.66c.82-1.65,1.95-2.97,3.41-3.94,1.46-.97,3.15-1.46,5.09-1.46s3.63,.49,5.06,1.46c1.43,.97,2.56,2.28,3.37,3.94,.82,1.65,1.22,3.54,1.22,5.66s-.41,3.96-1.22,5.66Z"/>
        <path class="cls-2" d="M189.34,303.14c-2.71-1.56-5.74-2.35-9.1-2.35s-6.38,.78-9.1,2.35c-2.71,1.57-4.87,3.73-6.48,6.48-1.61,2.76-2.41,5.94-2.41,9.56s.8,6.8,2.41,9.56c1.61,2.76,3.77,4.91,6.48,6.45,2.71,1.55,5.74,2.32,9.1,2.32s6.38-.77,9.1-2.32c2.71-1.54,4.87-3.69,6.48-6.45,1.61-2.76,2.41-5.94,2.41-9.56s-.81-6.8-2.41-9.56c-1.61-2.76-3.77-4.92-6.48-6.48Zm-.4,21.83c-.91,1.65-2.12,2.94-3.64,3.87-1.52,.93-3.21,1.39-5.06,1.39s-3.54-.46-5.06-1.39c-1.52-.93-2.74-2.22-3.64-3.87-.9-1.65-1.36-3.58-1.36-5.79s.45-4.2,1.36-5.86c.9-1.65,2.12-2.94,3.64-3.87,1.52-.93,3.21-1.39,5.06-1.39s3.54,.46,5.06,1.39c1.52,.93,2.73,2.22,3.64,3.87,.9,1.65,1.36,3.61,1.36,5.86s-.45,4.13-1.36,5.79Z"/>
        <path class="cls-2" d="M228.07,292.32c-1.94-1.19-4.12-1.79-6.55-1.79h-15.48c-.75,0-1.38,.25-1.89,.76-.51,.51-.76,1.14-.76,1.89v40.95c0,.75,.23,1.39,.69,1.92,.46,.53,1.09,.79,1.89,.79,.75,0,1.37-.27,1.85-.79,.48-.53,.73-1.17,.73-1.92v-15.88h12.97c2.43,0,4.61-.62,6.55-1.85,1.94-1.23,3.47-2.91,4.6-5.03,1.12-2.12,1.69-4.48,1.69-7.08s-.56-5-1.69-7.08c-1.12-2.07-2.66-3.7-4.6-4.9Zm-.07,16.41c-.66,1.37-1.54,2.45-2.65,3.24-1.1,.79-2.38,1.19-3.84,1.19h-12.97v-17.53h12.97c1.46,0,2.73,.39,3.84,1.16,1.1,.77,1.98,1.8,2.65,3.08,.66,1.28,.99,2.76,.99,4.43,0,1.59-.33,3.07-.99,4.43Z"/>
        <path class="cls-2" d="M263.2,306.18c-1.46-1.43-3.13-2.53-5.03-3.28-1.9-.75-3.86-1.12-5.89-1.12-2.73,0-5.33,.72-7.77,2.15-2.45,1.43-4.43,3.51-5.95,6.22-1.52,2.71-2.28,5.99-2.28,9.82,0,3.44,.74,6.47,2.22,9.1,1.48,2.62,3.54,4.69,6.19,6.19,2.65,1.5,5.73,2.25,9.26,2.25,2.38,0,4.63-.52,6.75-1.55,2.12-1.04,3.79-2.24,5.03-3.61,.71-.57,1.06-1.23,1.06-1.98,0-.62-.21-1.15-.63-1.59-.42-.44-.96-.66-1.62-.66-.53,0-1.08,.2-1.65,.6-.57,.62-1.28,1.22-2.12,1.82-.84,.6-1.83,1.09-2.98,1.49-1.15,.4-2.49,.59-4.04,.59-2.47,0-4.63-.56-6.48-1.69-1.85-1.13-3.3-2.66-4.33-4.6-.89-1.67-1.33-3.62-1.45-5.76h23.98c.7,0,1.32-.24,1.85-.73,.53-.48,.79-1.08,.79-1.79-.04-2.47-.51-4.71-1.39-6.72-.88-2.01-2.05-3.73-3.51-5.16Zm-.66,9.82h-20.83c.16-.82,.34-1.61,.62-2.32,.64-1.63,1.48-2.97,2.51-4,1.04-1.04,2.2-1.79,3.51-2.25,1.3-.46,2.61-.7,3.94-.7,1.63,0,3.19,.35,4.66,1.06,1.48,.71,2.73,1.71,3.77,3.01,1.04,1.3,1.64,2.86,1.82,4.66v.53Z"/>
        <path class="cls-2" d="M292.08,302.47c-.82-.46-1.71-.69-2.68-.69-1.63,0-3.13,.3-4.5,.89-1.37,.6-2.58,1.41-3.64,2.45-1.06,1.04-1.93,2.21-2.61,3.51-.3,.57-.41,1.18-.63,1.77v-5.11c0-.75-.24-1.38-.73-1.89-.49-.51-1.12-.76-1.92-.76-.75,0-1.38,.25-1.89,.76-.51,.51-.76,1.14-.76,1.89v28.85c0,.75,.25,1.39,.76,1.92,.51,.53,1.14,.79,1.89,.79s1.38-.27,1.89-.79c.51-.53,.76-1.17,.76-1.92v-16.08c0-1.59,.27-3.08,.83-4.47,.55-1.39,1.28-2.64,2.18-3.74,.9-1.1,1.9-1.95,2.98-2.55,1.08-.6,2.17-.89,3.27-.89,.79,0,1.46,.12,1.98,.36,.53,.24,1.08,.36,1.65,.36,.62,0,1.17-.22,1.65-.66,.48-.44,.73-1.12,.73-2.05,0-.84-.41-1.49-1.22-1.95Z"/>
        <path class="cls-2" d="M298.4,302.11c-.75,0-1.38,.25-1.89,.76-.51,.51-.76,1.14-.76,1.89v29.38c0,.75,.24,1.39,.73,1.92s1.12,.79,1.92,.79c.75,0,1.38-.27,1.89-.79,.51-.53,.76-1.17,.76-1.92v-29.38c0-.75-.25-1.38-.76-1.89-.51-.51-1.14-.76-1.89-.76Z"/>
        <path class="cls-2" d="M298.47,291.33c-1.06,0-1.87,.22-2.45,.66-.57,.44-.86,1.12-.86,2.05v.93c0,.93,.26,1.61,.79,2.05,.53,.44,1.34,.66,2.45,.66s1.86-.22,2.41-.66c.55-.44,.83-1.12,.83-2.05v-.93c0-.93-.26-1.61-.79-2.05-.53-.44-1.32-.66-2.38-.66Z"/>
        <path class="cls-2" d="M331.31,304.09c-2.58-1.54-5.48-2.32-8.7-2.32s-6.13,.77-8.73,2.32c-2.6,1.54-4.66,3.66-6.19,6.35-1.52,2.69-2.28,5.76-2.28,9.2s.76,6.51,2.28,9.2c1.52,2.69,3.58,4.81,6.19,6.35,2.6,1.55,5.51,2.32,8.73,2.32s6.12-.77,8.7-2.32c2.58-1.54,4.63-3.66,6.15-6.35,1.52-2.69,2.28-5.76,2.28-9.2s-.76-6.51-2.28-9.2c-1.52-2.69-3.57-4.81-6.15-6.35Zm1.59,22.23c-1.04,1.94-2.45,3.47-4.23,4.6-1.79,1.12-3.8,1.69-6.05,1.69s-4.27-.56-6.05-1.69c-1.79-1.13-3.21-2.66-4.27-4.6-1.06-1.94-1.59-4.17-1.59-6.68s.53-4.81,1.59-6.75c1.06-1.94,2.48-3.46,4.27-4.56,1.79-1.1,3.8-1.65,6.05-1.65s4.27,.55,6.05,1.65c1.79,1.1,3.2,2.62,4.23,4.56,1.04,1.94,1.55,4.19,1.55,6.75s-.52,4.74-1.55,6.68Z"/>
        <path class="cls-2" d="M372.56,287.89c-.79,0-1.43,.25-1.92,.76-.49,.51-.73,1.14-.73,1.89v17.39c-.63-.95-1.28-1.88-2.22-2.7-1.21-1.06-2.64-1.9-4.27-2.51-1.63-.62-3.37-.93-5.23-.93-2.91,0-5.56,.76-7.94,2.28-2.38,1.52-4.27,3.63-5.66,6.32-1.39,2.69-2.08,5.78-2.08,9.26s.7,6.51,2.08,9.2c1.39,2.69,3.29,4.81,5.69,6.35,2.4,1.55,5.08,2.32,8.04,2.32,1.81,0,3.49-.33,5.06-.99,1.56-.66,2.92-1.5,4.07-2.51,1.04-.92,1.81-1.91,2.45-2.96v3.09c0,.75,.24,1.39,.73,1.92,.48,.53,1.12,.79,1.92,.79,.75,0,1.38-.27,1.89-.79,.51-.53,.76-1.17,.76-1.92v-43.6c0-.75-.25-1.38-.76-1.89-.51-.51-1.14-.76-1.89-.76Zm-3.8,38.4c-.95,1.96-2.27,3.51-3.97,4.63-1.7,1.12-3.65,1.69-5.86,1.69s-4.09-.57-5.79-1.72c-1.7-1.15-3.03-2.7-4-4.66-.97-1.96-1.46-4.16-1.46-6.58s.48-4.74,1.46-6.68c.97-1.94,2.3-3.47,4-4.6,1.7-1.12,3.63-1.69,5.79-1.69s4.16,.56,5.86,1.69c1.7,1.13,3.02,2.66,3.97,4.6,.95,1.94,1.42,4.17,1.42,6.68s-.47,4.69-1.42,6.65Z"/>
        <path class="cls-2" d="M383.74,299.93c.4,0,.8-.09,1.22-.26,.42-.18,.78-.44,1.09-.79l5.03-5.29c.26-.35,.46-.68,.6-.99,.13-.31,.22-.64,.26-.99,0-.75-.22-1.36-.66-1.82-.44-.46-1.1-.7-1.98-.7-.62,0-1.15,.2-1.59,.6-.44,.4-.79,.82-1.06,1.26l-3.97,6.48c-.26,.4-.4,.75-.4,1.06,0,.44,.17,.79,.5,1.06,.33,.26,.65,.4,.96,.4Z"/>
        <path class="cls-2" d="M384.14,302.11c-.75,0-1.38,.25-1.89,.76-.51,.51-.76,1.14-.76,1.89v29.38c0,.75,.24,1.39,.73,1.92,.48,.53,1.12,.79,1.92,.79,.75,0,1.38-.27,1.89-.79,.51-.53,.76-1.17,.76-1.92v-29.38c0-.75-.25-1.38-.76-1.89-.51-.51-1.14-.76-1.89-.76Z"/>
        <path class="cls-2" d="M413.25,320.44c-1.06-.75-2.24-1.36-3.54-1.82-1.3-.46-2.66-.87-4.07-1.22-1.54-.44-2.96-.89-4.23-1.36-1.28-.46-2.29-1.07-3.04-1.82-.75-.75-1.15-1.72-1.19-2.91,0-1.28,.34-2.28,1.03-3.01,.68-.73,1.53-1.25,2.55-1.56,1.01-.31,2.05-.46,3.11-.46,1.68,0,3.21,.3,4.6,.89,1.39,.6,2.55,1.44,3.47,2.55,.4,.4,.89,.62,1.49,.66,.6,.04,1.14-.11,1.62-.46,.62-.53,.9-1.12,.86-1.79-.04-.66-.26-1.21-.66-1.65-.97-1.19-2.1-2.13-3.37-2.81-1.28-.68-2.59-1.17-3.94-1.46-1.35-.29-2.64-.43-3.87-.43-2.16,0-4.16,.4-5.99,1.19-1.83,.79-3.29,1.92-4.37,3.37-1.08,1.46-1.62,3.18-1.62,5.16,0,1.68,.34,3.1,1.02,4.27,.68,1.17,1.59,2.14,2.71,2.91,1.12,.77,2.39,1.41,3.8,1.92,1.41,.51,2.85,.96,4.3,1.36,1.41,.35,2.71,.76,3.9,1.23,1.19,.46,2.16,1.06,2.91,1.79,.75,.73,1.12,1.71,1.12,2.94s-.36,2.31-1.09,3.08c-.73,.77-1.62,1.31-2.68,1.62-1.06,.31-2.12,.49-3.18,.53-2.29,0-4.23-.43-5.82-1.29-1.59-.86-3-2.02-4.23-3.47-.49-.53-1.03-.82-1.62-.86-.6-.04-1.12,.09-1.56,.4-.71,.49-1.08,1.05-1.12,1.69-.04,.64,.13,1.25,.53,1.82,1.72,2.21,3.76,3.77,6.12,4.7,2.36,.93,4.75,1.39,7.18,1.39,2.16,0,4.18-.39,6.05-1.16,1.87-.77,3.38-1.9,4.53-3.37,1.15-1.48,1.72-3.23,1.72-5.26,0-1.76-.31-3.23-.93-4.4-.62-1.17-1.46-2.13-2.51-2.88Z"/>
        <path class="cls-2" d="M435.28,302.84h-6.02v-6.35c0-.75-.24-1.38-.73-1.89-.49-.51-1.1-.76-1.85-.76s-1.39,.25-1.92,.76c-.53,.51-.79,1.14-.79,1.89v6.35h-4.23c-.66,0-1.24,.23-1.72,.69-.49,.46-.73,1.02-.73,1.69,0,.71,.24,1.3,.73,1.79,.48,.49,1.06,.73,1.72,.73h4.23v20.97c0,2.03,.3,3.61,.89,4.73,.6,1.13,1.33,1.93,2.22,2.41,.88,.49,1.77,.77,2.68,.86,.9,.09,1.66,.13,2.28,.13,1.15,0,2.18-.28,3.11-.83,.93-.55,1.39-1.23,1.39-2.02,0-.66-.19-1.2-.56-1.62-.37-.42-.78-.63-1.22-.63s-.83,.08-1.16,.23c-.33,.15-.72,.23-1.16,.23-.49,0-.98-.1-1.49-.3-.51-.2-.92-.56-1.22-1.09-.31-.53-.46-1.32-.46-2.38v-20.71h6.02c.7,0,1.29-.23,1.75-.7,.46-.46,.69-1.05,.69-1.75,0-.66-.23-1.23-.69-1.72-.46-.48-1.05-.73-1.75-.73Z"/>
        <path class="cls-2" d="M444.28,291.33c-1.06,0-1.88,.22-2.45,.66-.57,.44-.86,1.12-.86,2.05v.93c0,.93,.27,1.61,.79,2.05,.53,.44,1.35,.66,2.45,.66s1.86-.22,2.42-.66c.55-.44,.83-1.12,.83-2.05v-.93c0-.93-.26-1.61-.79-2.05-.53-.44-1.32-.66-2.38-.66Z"/>
        <path class="cls-2" d="M444.21,302.11c-.75,0-1.38,.25-1.88,.76-.51,.51-.76,1.14-.76,1.89v29.38c0,.75,.24,1.39,.73,1.92,.48,.53,1.12,.79,1.92,.79,.75,0,1.38-.27,1.89-.79,.51-.53,.76-1.17,.76-1.92v-29.38c0-.75-.25-1.38-.76-1.89-.51-.51-1.14-.76-1.89-.76Z"/>
        <path class="cls-2" d="M478.08,329.3c-.71,0-1.27,.22-1.69,.66-.42,.44-1.03,.88-1.82,1.32-.62,.35-1.39,.66-2.32,.93-.93,.26-2.16,.4-3.71,.4-2.38,0-4.48-.57-6.28-1.72-1.81-1.15-3.22-2.69-4.23-4.63-1.02-1.94-1.52-4.15-1.52-6.62s.53-4.67,1.59-6.62c1.06-1.94,2.5-3.48,4.33-4.63,1.83-1.15,3.96-1.72,6.38-1.72,1.01,0,2.03,.09,3.04,.26,1.01,.18,1.79,.42,2.32,.73,.57,.27,1.03,.57,1.36,.93,.33,.35,.68,.64,1.06,.86,.37,.22,.87,.33,1.49,.33,.66,0,1.19-.26,1.59-.79s.6-1.08,.6-1.65c0-1.06-.53-2.01-1.59-2.84-1.06-.84-2.49-1.5-4.3-1.99-1.81-.49-3.84-.73-6.09-.73-3.4,0-6.37,.79-8.93,2.38-2.56,1.59-4.55,3.73-5.99,6.42-1.43,2.69-2.15,5.71-2.15,9.06s.69,6.38,2.09,9.1c1.39,2.71,3.34,4.85,5.85,6.42,2.51,1.57,5.45,2.35,8.8,2.35,2.38,0,4.51-.31,6.38-.93,1.87-.62,3.36-1.37,4.47-2.25,1.1-.88,1.65-1.72,1.65-2.51,0-.7-.21-1.3-.63-1.79-.42-.49-1-.73-1.75-.73Z"/>
        <path class="cls-2" d="M508.15,304.09c-2.58-1.54-5.48-2.32-8.7-2.32s-6.13,.77-8.73,2.32c-2.6,1.54-4.66,3.66-6.19,6.35-1.52,2.69-2.28,5.76-2.28,9.2s.76,6.51,2.28,9.2c1.52,2.69,3.58,4.81,6.19,6.35,2.6,1.55,5.51,2.32,8.73,2.32s6.12-.77,8.7-2.32c2.58-1.54,4.63-3.66,6.15-6.35,1.52-2.69,2.28-5.76,2.28-9.2s-.76-6.51-2.28-9.2c-1.52-2.69-3.57-4.81-6.15-6.35Zm1.59,22.23c-1.04,1.94-2.45,3.47-4.23,4.6-1.79,1.12-3.8,1.69-6.05,1.69s-4.27-.56-6.05-1.69c-1.79-1.13-3.21-2.66-4.27-4.6-1.06-1.94-1.59-4.17-1.59-6.68s.53-4.81,1.59-6.75c1.06-1.94,2.48-3.46,4.27-4.56,1.79-1.1,3.8-1.65,6.05-1.65s4.27,.55,6.05,1.65c1.79,1.1,3.2,2.62,4.23,4.56,1.04,1.94,1.56,4.19,1.56,6.75s-.52,4.74-1.56,6.68Z"/>
        <path class="cls-2" d="M525.52,290.53c-1.24,0-2.25,.39-3.04,1.16-.79,.77-1.19,1.73-1.19,2.88v38.24c0,1.15,.37,2.11,1.12,2.88,.75,.77,1.74,1.16,2.98,1.16,1.1,0,2.07-.39,2.91-1.16,.84-.77,1.26-1.73,1.26-2.88v-38.24c0-1.15-.41-2.11-1.22-2.88-.82-.77-1.75-1.16-2.81-1.16Z"/>
        <path class="cls-2" d="M561.87,302.84c-1.7-1.37-4.18-2.05-7.44-2.05-1.5,0-2.89,.23-4.17,.69-1.28,.46-2.43,1.07-3.44,1.82-1.02,.75-1.9,1.56-2.65,2.42-.32,.36-.47,.68-.73,1.02v-1.25c0-1.15-.38-2.11-1.12-2.88-.75-.77-1.7-1.16-2.85-1.16s-2.1,.39-2.84,1.16c-.75,.77-1.12,1.73-1.12,2.88v27.32c0,1.15,.37,2.11,1.12,2.88,.75,.77,1.7,1.16,2.84,1.16s2.1-.39,2.85-1.16c.75-.77,1.12-1.73,1.12-2.88v-16.94c0-1.46,.32-2.77,.96-3.94,.64-1.17,1.56-2.11,2.78-2.81,1.21-.71,2.7-1.06,4.47-1.06s3.2,.35,4.17,1.06c.97,.71,1.64,1.64,2.02,2.81,.37,1.17,.56,2.48,.56,3.94v16.94c0,1.15,.37,2.11,1.12,2.88,.75,.77,1.7,1.16,2.85,1.16s2.09-.39,2.84-1.16c.75-.77,1.13-1.73,1.13-2.88v-16.94c0-2.78-.32-5.3-.96-7.57-.64-2.27-1.81-4.09-3.51-5.46Z"/>
        <path class="cls-2" d="M600.61,287.89c-1.15,0-2.1,.39-2.84,1.16-.75,.77-1.12,1.73-1.12,2.88v13.01c-.39-.37-.81-.74-1.29-1.11-1.17-.88-2.55-1.61-4.13-2.18-1.59-.57-3.33-.86-5.23-.86-2.96,0-5.65,.78-8.07,2.35-2.43,1.57-4.36,3.73-5.79,6.48-1.43,2.76-2.15,5.94-2.15,9.56s.72,6.74,2.15,9.49c1.43,2.76,3.39,4.92,5.86,6.48,2.47,1.57,5.23,2.35,8.27,2.35,1.68,0,3.23-.28,4.66-.83,1.43-.55,2.68-1.22,3.74-2.02,.84-.63,1.42-1.27,1.98-1.91v.05c0,1.15,.37,2.11,1.12,2.88,.75,.77,1.7,1.16,2.84,1.16s2.1-.39,2.84-1.16c.75-.77,1.12-1.73,1.12-2.88v-40.89c0-1.19-.38-2.16-1.12-2.91-.75-.75-1.7-1.12-2.84-1.12Zm-4.86,36.92c-.82,1.68-1.95,3-3.41,3.97-1.46,.97-3.15,1.46-5.09,1.46s-3.57-.49-5.03-1.46c-1.46-.97-2.59-2.29-3.41-3.97-.82-1.68-1.22-3.55-1.22-5.62s.41-4.01,1.22-5.69c.82-1.68,1.95-3,3.41-3.97,1.46-.97,3.13-1.46,5.03-1.46s3.64,.49,5.09,1.46c1.45,.97,2.59,2.29,3.41,3.97,.81,1.68,1.22,3.57,1.22,5.69s-.41,3.95-1.22,5.62Z"/>
        <path class="cls-2" d="M637.19,301.45c-1.15,0-2.1,.39-2.84,1.16-.75,.77-1.12,1.73-1.12,2.88v16.8c0,2.69-.6,4.69-1.79,5.99-1.19,1.3-3,1.95-5.42,1.95s-4.17-.65-5.36-1.95c-1.19-1.3-1.79-3.3-1.79-5.99v-16.8c0-1.15-.38-2.11-1.12-2.88-.75-.77-1.7-1.16-2.85-1.16s-2.1,.39-2.84,1.16c-.75,.77-1.12,1.73-1.12,2.88v16.8c0,4.68,1.29,8.38,3.87,11.12,2.58,2.74,6.32,4.1,11.21,4.1s8.64-1.37,11.25-4.1c2.6-2.73,3.9-6.44,3.9-11.12v-16.8c0-1.15-.38-2.11-1.12-2.88-.75-.77-1.7-1.16-2.84-1.16Z"/>
        <path class="cls-2" d="M667.89,319.05c-1.15-.79-2.41-1.43-3.77-1.92-1.37-.48-2.71-.9-4.04-1.26-1.28-.35-2.48-.72-3.61-1.09-1.12-.37-2.02-.86-2.68-1.46-.66-.6-.99-1.4-.99-2.42,0-1.1,.29-1.91,.86-2.41,.57-.51,1.25-.84,2.02-.99,.77-.15,1.49-.23,2.15-.23,1.63,0,3.08,.29,4.33,.86,1.26,.57,2.26,1.35,3.01,2.32,.57,.53,1.3,.83,2.18,.89,.88,.07,1.65-.17,2.32-.69,.93-.75,1.34-1.59,1.26-2.51-.09-.93-.38-1.72-.86-2.38-.93-1.19-2.07-2.15-3.44-2.88-1.37-.73-2.8-1.26-4.3-1.59-1.5-.33-2.93-.5-4.3-.5-2.16,0-4.22,.42-6.19,1.26-1.96,.84-3.56,2.03-4.8,3.57-1.24,1.54-1.85,3.42-1.85,5.62,0,1.94,.37,3.55,1.12,4.83,.75,1.28,1.72,2.3,2.91,3.08,1.19,.77,2.5,1.4,3.94,1.88,1.43,.49,2.83,.93,4.2,1.32,1.32,.35,2.52,.73,3.61,1.12,1.08,.4,1.95,.88,2.61,1.46,.66,.57,.99,1.35,.99,2.32,0,1.15-.3,2-.89,2.55-.6,.55-1.29,.9-2.08,1.06-.79,.15-1.52,.25-2.18,.3-2.12,0-3.88-.35-5.29-1.06-1.41-.7-2.76-1.7-4.04-2.98-.75-.75-1.52-1.16-2.32-1.22-.79-.07-1.54,.12-2.25,.56-1.1,.71-1.68,1.55-1.72,2.52-.04,.97,.15,1.76,.6,2.38,1.72,2.29,3.88,3.89,6.48,4.8,2.6,.9,5.2,1.36,7.81,1.36,2.07,0,4.1-.41,6.09-1.22,1.98-.82,3.64-2.02,4.96-3.61,1.32-1.59,1.99-3.51,1.99-5.76,0-1.94-.35-3.54-1.06-4.8-.71-1.26-1.63-2.28-2.78-3.08Z"/>
        <path class="cls-2" d="M691.11,309.39c1.06,0,1.94-.34,2.65-1.03,.71-.68,1.06-1.53,1.06-2.55s-.35-1.94-1.06-2.65c-.71-.71-1.59-1.06-2.65-1.06h-4.7v-4.23c0-1.15-.36-2.11-1.09-2.88-.73-.77-1.66-1.16-2.81-1.16s-2.11,.39-2.88,1.16c-.77,.77-1.16,1.73-1.16,2.88v4.23h-3.04c-1.06,0-1.94,.34-2.65,1.03-.71,.68-1.06,1.53-1.06,2.55s.35,1.94,1.06,2.65c.7,.71,1.59,1.06,2.65,1.06h3.04v18.26c0,2.16,.33,3.86,.99,5.09,.66,1.24,1.49,2.15,2.48,2.74,.99,.6,2.05,.97,3.18,1.12,1.12,.15,2.15,.23,3.08,.23,1.54,0,2.99-.4,4.33-1.19,1.35-.79,2.02-1.81,2.02-3.04,0-1.01-.25-1.81-.76-2.38-.51-.57-1.07-.86-1.69-.86-.57,0-1.08,.1-1.52,.3-.44,.2-.93,.3-1.46,.3-.49,0-.94-.09-1.36-.27-.42-.18-.75-.46-.99-.86-.24-.4-.36-.9-.36-1.52v-17.93h4.7Z"/>
        <path class="cls-2" d="M717.18,300.79c-1.1,0-2.21,.13-3.31,.4-1.1,.26-2.14,.67-3.11,1.22-.97,.55-1.84,1.24-2.61,2.05-.58,.62-1,1.37-1.42,2.12v-1.1c0-1.15-.38-2.11-1.12-2.88-.75-.77-1.7-1.16-2.85-1.16s-2.1,.39-2.84,1.16c-.75,.77-1.12,1.73-1.12,2.88v27.32c0,1.15,.37,2.11,1.12,2.88,.75,.77,1.7,1.16,2.84,1.16s2.1-.39,2.85-1.16c.75-.77,1.12-1.73,1.12-2.88v-15.68c0-1.59,.21-2.97,.63-4.13,.42-1.17,.97-2.15,1.65-2.94,.68-.79,1.43-1.38,2.25-1.75,.82-.37,1.62-.56,2.42-.56,.88,0,1.66,.15,2.35,.46,.68,.31,1.44,.46,2.28,.46,.88,0,1.7-.32,2.45-.96,.75-.64,1.12-1.69,1.12-3.14,0-1.01-.45-1.9-1.36-2.65-.91-.75-2.02-1.12-3.34-1.12Z"/>
        <path class="cls-2" d="M727.69,289.27c-1.41,0-2.46,.23-3.14,.69-.68,.46-1.02,1.34-1.02,2.61v1.26c0,1.24,.31,2.1,.93,2.58,.62,.49,1.68,.73,3.17,.73s2.58-.23,3.24-.69c.66-.46,.99-1.33,.99-2.61v-1.26c0-1.24-.31-2.09-.93-2.58-.62-.48-1.7-.73-3.24-.73Z"/>
        <path class="cls-2" d="M727.69,301.45c-1.15,0-2.1,.39-2.84,1.16-.75,.77-1.12,1.73-1.12,2.88v27.32c0,1.15,.37,2.11,1.12,2.88,.75,.77,1.7,1.16,2.84,1.16s2.09-.39,2.84-1.16c.75-.77,1.12-1.73,1.12-2.88v-27.32c0-1.15-.38-2.11-1.12-2.88-.75-.77-1.7-1.16-2.84-1.16Z"/>
        <path class="cls-2" d="M766.73,329.04c-.57,0-1.03,.1-1.36,.3-.33,.2-.63,.3-.89,.3-.18,0-.34-.12-.5-.36-.15-.24-.23-.56-.23-.96l-.07-14.36c0-3.13-.63-5.66-1.89-7.58-1.26-1.92-2.93-3.33-5.03-4.23-2.1-.9-4.47-1.36-7.11-1.36-2.43,0-4.54,.28-6.35,.83-1.81,.55-3.31,1.21-4.5,1.98-1.19,.77-2.1,1.49-2.71,2.15-.57,.57-.93,1.11-1.06,1.62-.13,.51-.2,.98-.2,1.42,0,.97,.41,1.84,1.22,2.61,.81,.77,1.64,1.16,2.48,1.16,1.15,0,2.14-.46,2.98-1.39,1.06-1.28,2.34-2.12,3.84-2.51,1.5-.4,2.87-.6,4.1-.6,1.68,0,3.15,.52,4.43,1.56,1.28,1.04,1.92,2.64,1.92,4.8v1.46c-1.9-1.19-4.23-1.79-7.01-1.79-2.25,0-4.44,.45-6.58,1.36-2.14,.9-3.89,2.25-5.26,4.04-1.37,1.79-2.05,4.03-2.05,6.72,0,2.03,.46,3.9,1.39,5.62,.93,1.72,2.27,3.1,4.04,4.13,1.76,1.04,3.9,1.55,6.42,1.55,1.63,0,3.2-.32,4.7-.96,1.5-.64,2.82-1.49,3.97-2.55,.36-.33,.63-.68,.93-1.02,.33,.77,.74,1.51,1.32,2.17,.97,1.13,2.27,1.69,3.9,1.69,1.94,0,3.59-.5,4.96-1.49,1.37-.99,2.05-2.26,2.05-3.8,0-.93-.2-1.58-.6-1.95-.4-.37-.82-.56-1.26-.56Zm-11.91,.5c-1.24,.9-2.91,1.36-5.03,1.36s-3.8-.45-5.06-1.36c-1.26-.9-1.89-2.17-1.89-3.8s.63-2.97,1.89-3.87c1.26-.9,2.94-1.36,5.06-1.36s3.79,.45,5.03,1.36c1.23,.9,1.85,2.19,1.85,3.87s-.62,2.9-1.85,3.8Z"/>
        <path class="cls-2" d="M778.07,289.04c-.73-.77-1.67-1.16-2.81-1.16s-2.11,.39-2.88,1.16c-.77,.77-1.16,1.73-1.16,2.88v40.89c0,1.15,.37,2.11,1.12,2.88,.75,.77,1.68,1.16,2.78,1.16s2.11-.39,2.88-1.16c.77-.77,1.16-1.73,1.16-2.88v-40.89c0-1.15-.36-2.11-1.09-2.88Z"/>
      </g>
      <g>
        <g>
          <path class="cls-2" d="M133.78,159.5h80.86c-1.96,12.25-6.56,23.28-13.78,33.08-7.23,9.8-16.48,17.46-27.75,22.97-11.27,5.51-23.77,8.27-37.49,8.27-12.74,0-24.5-2.26-35.28-6.8-10.78-4.53-20.21-10.96-28.3-19.29-8.09-8.33-14.4-18.01-18.93-29.03-4.54-11.03-6.8-23.03-6.8-36.02s2.21-24.99,6.62-36.02c4.41-11.03,10.66-20.64,18.74-28.85,8.09-8.21,17.46-14.57,28.12-19.11,10.66-4.53,22.23-6.8,34.73-6.8,14.45,0,28.05,2.88,40.8,8.64,12.74,5.76,23.64,14.15,32.71,25.18l31.61-29.4c-12.25-14.7-27.63-26.09-46.12-34.18C175,4.04,155.33,0,134.51,0c-18.87,0-36.45,3.43-52.74,10.29-16.3,6.86-30.57,16.35-42.82,28.48-12.25,12.13-21.81,26.22-28.67,42.27C3.43,97.09,0,114.3,0,132.68s3.43,35.59,10.29,51.64c6.86,16.05,16.48,30.14,28.85,42.27,12.37,12.13,26.77,21.63,43.18,28.48,16.41,6.86,34.05,10.29,52.92,10.29s34.97-3.25,50.53-9.74c14.33-5.98,26.86-14.35,37.77-24.91v30.61h39.23V119.81H133.78v39.69Z"/>
          <path class="cls-2" d="M451.31,13.97c-12.74-6.62-27.56-9.92-44.47-9.92h-123.49V261.31h45.2v-100.33h78.28c16.66,0,31.42-3.37,44.29-10.11,12.86-6.74,22.84-15.99,29.95-27.75,7.1-11.76,10.66-25.23,10.66-40.43s-3.55-29.09-10.66-40.98c-7.11-11.88-17.03-21.13-29.77-27.75Zm-17.09,97.94c-7.97,7.23-18.69,10.84-32.16,10.84h-73.5V43.37h73.5c13.47,0,24.19,3.62,32.16,10.84,7.96,7.23,11.94,16.85,11.94,28.85s-3.99,21.63-11.94,28.85Z"/>
          <rect class="cls-2" x="511.58" y="4.04" width="45.21" height="257.26"/>
        </g>
        <g>
          <path class="cls-2" d="M722.51,92.01c8.12-10.61,21.09-16.21,33.83-14.61,3.3,.41,6.68,.39,10.05-.06,17.27-2.34,31.11-16.64,32.9-33.98,1.17-11.32-2.67-22.49-10.53-30.66-7.86-8.17-18.86-12.44-30.18-11.71-19.13,1.23-34.52,16.59-35.79,35.72-.31,4.62,.2,9.19,1.51,13.57,3.52,11.78,1.39,24.38-5.72,33.72l-27.35,35.96c-1.58,2.07-4.48,2.6-6.6,1.2-8.87-5.86-19.19-8.95-29.83-8.95h0c-.91,0-1.68-.65-1.82-1.55l-2.41-15.14c-.95-5.98,2.39-11.9,8.13-14.4,15.29-6.65,24.51-22.29,22.94-38.92-1.74-18.39-16.95-33.26-35.4-34.59-10.78-.78-21.06,2.84-28.96,10.19-7.79,7.25-12.26,17.49-12.26,28.1,0,17.03,11.45,32.2,27.84,36.89,5.19,1.48,9,5.8,9.73,10.99l2.18,15.59c.29,2.05-1.02,3.98-3.05,4.48-25.9,6.43-43.18,30.42-41.08,57.04,2.04,25.96,23.13,47.34,49.05,49.72,17.63,1.62,34.42-5.11,46.05-18.46,1.68-1.93,4.52-2.38,6.75-1.08l16.49,9.62-.39,.77c-.2,.39-.23,.84-.1,1.25,.14,.41,.43,.76,.82,.95l4.26,2.16c-.25,.67-.48,1.36-.69,2.07l-4.54-1.11c-.42-.1-.87-.03-1.24,.19-.37,.23-.64,.59-.74,1.01l-.31,1.3c-.21,.88,.33,1.76,1.2,1.98l4.62,1.13c-.08,.56-.14,1.14-.19,1.73l-4.66-.15c-.9-.07-1.66,.68-1.69,1.59l-.04,1.34c-.01,.43,.15,.86,.44,1.17,.3,.32,.71,.5,1.14,.52l4.72,.15c.05,.74,.12,1.48,.22,2.24l-4.84,1.23c-.88,.22-1.41,1.11-1.19,1.99l.32,1.3c.11,.42,.38,.79,.75,1.01,.37,.22,.82,.29,1.24,.18l4.63-1.17c.19,.67,.4,1.33,.62,1.98l-4.47,2.14c-.39,.19-.69,.52-.84,.93s-.12,.86,.07,1.25l.57,1.2c.39,.82,1.37,1.16,2.18,.77l4.37-2.08c.35,.65,.72,1.29,1.1,1.9l-3.78,2.65c-.36,.25-.6,.63-.67,1.06-.07,.43,.02,.87,.27,1.23l.77,1.1c.52,.74,1.54,.92,2.28,.4l3.87-2.72c.46,.54,.95,1.07,1.46,1.58-1.03,1.18-2.07,2.35-3.1,3.53-.29,.33-.43,.75-.4,1.19s.23,.84,.56,1.12l1,.88c.68,.6,1.72,.53,2.31-.15,1.03-1.17,2.05-2.34,3.08-3.51,.55,.41,1.13,.82,1.73,1.2l-2.33,4.17c-.21,.38-.27,.83-.15,1.25,.12,.42,.4,.77,.78,.99l1.17,.65c.79,.44,1.78,.15,2.22-.63l2.34-4.17c.61,.28,1.22,.54,1.85,.78l-1.11,4.69c-.1,.42-.03,.87,.2,1.24,.23,.37,.6,.63,1.02,.73l1.31,.3c.88,.2,1.76-.34,1.97-1.22l1.05-4.42c.64,.15,1.26,.27,1.89,.37l-.17,4.8c-.03,.9,.67,1.66,1.58,1.7l1.34,.05s.04,0,.06,0c.41,0,.81-.16,1.12-.44,.32-.3,.51-.71,.52-1.14l.16-4.57c.81,.02,1.63-.01,2.52-.08l.43,4.57c.09,.9,.89,1.57,1.79,1.48l1.33-.12c.43-.04,.83-.25,1.11-.59s.41-.77,.37-1.2l-.46-4.81c.63-.14,1.25-.29,1.86-.47l1.42,4.56c.27,.86,1.19,1.35,2.05,1.08l1.27-.4c.86-.27,1.35-1.19,1.08-2.05l-1.49-4.78c.62-.28,1.23-.59,1.84-.91l2.83,3.96c.53,.73,1.55,.91,2.28,.38l1.09-.77c.35-.25,.59-.64,.67-1.07s-.03-.87-.28-1.22l-2.67-3.74c.54-.4,1.06-.81,1.56-1.24l3.41,3.34c.64,.63,1.68,.63,2.31-.02l.94-.95c.31-.31,.48-.73,.47-1.17,0-.44-.18-.85-.49-1.16l-3.35-3.28c.58-.66,1.13-1.35,1.66-2.07l3.74,2.86c.72,.55,1.75,.41,2.3-.31l.81-1.07c.26-.35,.38-.78,.32-1.21s-.28-.82-.63-1.09l-4.08-3.12c.26-.49,.51-.98,.74-1.47l4.2,1.91c.82,.38,1.8,.01,2.17-.81l.55-1.21c.18-.4,.2-.85,.04-1.26-.15-.41-.46-.74-.86-.92l-4.48-2.04c.19-.65,.36-1.31,.52-1.97,1.66,.26,3.32,.53,4.98,.8,.43,.07,.87-.04,1.22-.29,.35-.26,.59-.64,.66-1.07l.21-1.32c.14-.89-.47-1.73-1.36-1.88-1.67-.27-3.33-.54-5-.8,.07-.85,.11-1.64,.11-2.42,0-.31,0-.62-.02-.93l4.74-.3c.9-.06,1.59-.84,1.53-1.74l-.08-1.34c-.03-.43-.23-.84-.55-1.13-.33-.29-.76-.43-1.19-.41l-4.95,.31c-.2-1.14-.47-2.27-.8-3.39l4.45-1.58c.41-.15,.75-.45,.93-.84s.21-.84,.06-1.25l-.45-1.26c-.3-.85-1.24-1.3-2.09-1l-4.53,1.61c-.27-.57-.56-1.15-.88-1.72l4.15-2.58c.77-.48,1.01-1.48,.53-2.25l-.7-1.14c-.23-.37-.59-.64-1.02-.74-.42-.1-.87-.03-1.24,.2l-4.2,2.6c-.36-.47-.74-.94-1.15-1.41l3.47-3.71c.62-.66,.58-1.69-.07-2.31l-.97-.91c-.32-.3-.72-.47-1.18-.45-.44,.01-.85,.2-1.15,.52l-3.33,3.56c-.6-.53-1.2-1.02-1.82-1.49l2.74-3.85c.25-.35,.35-.79,.28-1.22-.07-.43-.31-.81-.67-1.06l-1.09-.77c-.74-.52-1.76-.35-2.28,.39l-2.88,4.04c-.57-.31-1.14-.61-1.71-.88l1.94-4.61c.17-.4,.17-.85,0-1.26-.16-.4-.48-.72-.88-.89l-1.23-.52c-.83-.35-1.79,.04-2.14,.88l-2.01,4.76c-.63-.19-1.27-.36-1.9-.5l.48-5.17c.08-.9-.58-1.7-1.48-1.78l-1.33-.12c-.43-.04-.86,.09-1.2,.37-.34,.28-.55,.68-.59,1.11l-.46,4.89c-.79-.07-1.52-.11-2.23-.11l-.28-4.92c-.02-.43-.22-.84-.55-1.13-.32-.29-.75-.45-1.19-.41l-1.34,.08c-.9,.05-1.59,.82-1.54,1.73l.28,4.98c-.69,.1-1.39,.22-2.09,.37l-1.1-4.76c-.1-.42-.36-.79-.73-1.02s-.82-.3-1.24-.21l-1.31,.3c-.88,.2-1.43,1.08-1.23,1.96l1.15,4.98c-.56,.21-1.13,.44-1.7,.7l-2.2-4.39c-.19-.39-.54-.69-.95-.82-.41-.14-.87-.11-1.25,.09l-1.19,.6c-.81,.41-1.13,1.39-.73,2.2l2.24,4.48c-.57,.36-1.13,.74-1.67,1.13l-3.44-3.81c-.61-.67-1.64-.72-2.31-.12l-.99,.89c-.32,.29-.52,.7-.54,1.13-.02,.43,.13,.86,.42,1.18,1.1,1.23,2.21,2.45,3.34,3.7-.53,.51-1.03,1.03-1.51,1.56l-4.01-2.82c-.74-.52-1.76-.34-2.28,.4l-.25,.35-16.36-9.33c-2.23-1.27-3.15-3.96-2.13-6.26,3.08-6.94,4.64-14.29,4.64-21.86,0-12.5-4.37-24.72-12.31-34.4-1.53-1.87-1.59-4.5-.14-6.4l25.81-33.72Z"/>
          <circle class="cls-3" cx="761.54" cy="39.29" r="31.41"/>
          <circle class="cls-1" cx="655.25" cy="166.52" r="47.34" transform="translate(250.65 708.17) rotate(-67.5)"/>
          <circle class="cls-4" cx="643.87" cy="45.9" r="31.41"/>
        </g>
      </g>
    </g>
  </g>
</svg>